{
    "asset" : {
        "generator" : "Khronos glTF Blender I/O v3.4.50",
        "version" : "2.0"
    },
    "scene" : 0,
    "scenes" : [
        {
            "name" : "Scene",
            "nodes" : [
                0
            ]
        }
    ],
    "nodes" : [
        {
            "mesh" : 0,
            "name" : "red",
            "rotation" : [
                0.5000000596046448,
                -0.5,
                0.5,
                0.5
            ],
            "translation" : [
                18.935564041137695,
                0,
                0
            ]
        }
    ],
    "materials" : [
        {
            "doubleSided" : true,
            "name" : "red",
            "pbrMetallicRoughness" : {
                "baseColorFactor" : [
                    0.8000000715255737,
                    0.00439276359975338,
                    0.019022716209292412,
                    1
                ],
                "metallicFactor" : 0.25,
                "roughnessFactor" : 0.22440946102142334
            }
        }
    ],
    "meshes" : [
        {
            "name" : "Sphere.006",
            "primitives" : [
                {
                    "attributes" : {
                        "POSITION" : 0,
                        "TEXCOORD_0" : 1,
                        "TEXCOORD_1" : 2,
                        "NORMAL" : 3
                    },
                    "indices" : 4,
                    "material" : 0
                }
            ]
        }
    ],
    "accessors" : [
        {
            "bufferView" : 0,
            "componentType" : 5126,
            "count" : 9965,
            "max" : [
                0.9872310161590576,
                0.8765230178833008,
                0.9872310161590576
            ],
            "min" : [
                -0.9872300028800964,
                -0.8765230178833008,
                -0.9872310161590576
            ],
            "type" : "VEC3"
        },
        {
            "bufferView" : 1,
            "componentType" : 5126,
            "count" : 9965,
            "type" : "VEC2"
        },
        {
            "bufferView" : 2,
            "componentType" : 5126,
            "count" : 9965,
            "type" : "VEC2"
        },
        {
            "bufferView" : 3,
            "componentType" : 5126,
            "count" : 9965,
            "type" : "VEC3"
        },
        {
            "bufferView" : 4,
            "componentType" : 5123,
            "count" : 52224,
            "type" : "SCALAR"
        }
    ],
    "bufferViews" : [
        {
            "buffer" : 0,
            "byteLength" : 119580,
            "byteOffset" : 0,
            "target" : 34962
        },
        {
            "buffer" : 0,
            "byteLength" : 79720,
            "byteOffset" : 119580,
            "target" : 34962
        },
        {
            "buffer" : 0,
            "byteLength" : 79720,
            "byteOffset" : 199300,
            "target" : 34962
        },
        {
            "buffer" : 0,
            "byteLength" : 119580,
            "byteOffset" : 279020,
            "target" : 34962
        },
        {
            "buffer" : 0,
            "byteLength" : 104448,
            "byteOffset" : 398600,
            "target" : 34963
        }
    ],
    "buffers" : [
        {
            "byteLength" : 503048,
            "uri" : "data:application/octet-stream;base64,"
        }
    ]
}
