{
    "asset" : {
        "generator" : "Khronos glTF Blender I/O v3.4.50",
        "version" : "2.0"
    },
    "scene" : 0,
    "scenes" : [
        {
            "name" : "Scene",
            "nodes" : [
                0
            ]
        }
    ],
    "nodes" : [
        {
            "mesh" : 0,
            "name" : "recycle",
            "rotation" : [
                0,
                0.7071068286895752,
                0.7071068286895752,
                1.1520233300643667e-07
            ],
            "translation" : [
                -14.45358657836914,
                0.2668151557445526,
                0
            ]
        }
    ],
    "materials" : [
        {
            "doubleSided" : true,
            "name" : "recycle",
            "pbrMetallicRoughness" : {
                "baseColorFactor" : [
                    0.2569836676120758,
                    0.8000000715255737,
                    0,
                    1
                ],
                "metallicFactor" : 0.25,
                "roughnessFactor" : 0.22440946102142334
            }
        }
    ],
    "meshes" : [
        {
            "name" : "BezierCurve.005",
            "primitives" : [
                {
                    "attributes" : {
                        "POSITION" : 0,
                        "TEXCOORD_0" : 1,
                        "NORMAL" : 2
                    },
                    "indices" : 3,
                    "material" : 0
                }
            ]
        }
    ],
    "accessors" : [
        {
            "bufferView" : 0,
            "componentType" : 5126,
            "count" : 8000,
            "max" : [
                1.4123308658599854,
                0.1599999964237213,
                1.1254980564117432
            ],
            "min" : [
                -1.4123308658599854,
                -0.1599999964237213,
                -1.3846248388290405
            ],
            "type" : "VEC3"
        },
        {
            "bufferView" : 1,
            "componentType" : 5126,
            "count" : 8000,
            "type" : "VEC2"
        },
        {
            "bufferView" : 2,
            "componentType" : 5126,
            "count" : 8000,
            "type" : "VEC3"
        },
        {
            "bufferView" : 3,
            "componentType" : 5123,
            "count" : 34536,
            "type" : "SCALAR"
        }
    ],
    "bufferViews" : [
        {
            "buffer" : 0,
            "byteLength" : 96000,
            "byteOffset" : 0,
            "target" : 34962
        },
        {
            "buffer" : 0,
            "byteLength" : 64000,
            "byteOffset" : 96000,
            "target" : 34962
        },
        {
            "buffer" : 0,
            "byteLength" : 96000,
            "byteOffset" : 160000,
            "target" : 34962
        },
        {
            "buffer" : 0,
            "byteLength" : 69072,
            "byteOffset" : 256000,
            "target" : 34963
        }
    ],
    "buffers" : [
        {
            "byteLength" : 325072,
            "uri" : "data:application/octet-stream;base64,"
        }
    ]
}
