{
    "asset" : {
        "generator" : "Khronos glTF Blender I/O v3.4.50",
        "version" : "2.0"
    },
    "scene" : 0,
    "scenes" : [
        {
            "name" : "Scene",
            "nodes" : [
                0
            ]
        }
    ],
    "nodes" : [
        {
            "mesh" : 0,
            "name" : "Plane",
            "rotation" : [
                0,
                0.7071068286895752,
                0.7071068286895752,
                1.1520233300643667e-07
            ],
            "scale" : [
                0.2874925136566162,
                1,
                1
            ],
            "translation" : [
                -12.157590866088867,
                0,
                0
            ]
        }
    ],
    "materials" : [
        {
            "doubleSided" : true,
            "name" : "arrowmaterial",
            "pbrMetallicRoughness" : {
                "baseColorFactor" : [
                    0.07108890265226364,
                    0.8000000715255737,
                    0.3556593656539917,
                    1
                ],
                "metallicFactor" : 0.25,
                "roughnessFactor" : 0.22440946102142334
            }
        }
    ],
    "meshes" : [
        {
            "name" : "Plane",
            "primitives" : [
                {
                    "attributes" : {
                        "POSITION" : 0,
                        "TEXCOORD_0" : 1,
                        "NORMAL" : 2
                    },
                    "indices" : 3,
                    "material" : 0
                }
            ]
        }
    ],
    "accessors" : [
        {
            "bufferView" : 0,
            "componentType" : 5126,
            "count" : 1206,
            "max" : [
                2.4493789672851562,
                0.13999998569488525,
                1
            ],
            "min" : [
                -2.4493789672851562,
                -0.13999998569488525,
                -1.0724632740020752
            ],
            "type" : "VEC3"
        },
        {
            "bufferView" : 1,
            "componentType" : 5126,
            "count" : 1206,
            "type" : "VEC2"
        },
        {
            "bufferView" : 2,
            "componentType" : 5126,
            "count" : 1206,
            "type" : "VEC3"
        },
        {
            "bufferView" : 3,
            "componentType" : 5123,
            "count" : 1824,
            "type" : "SCALAR"
        }
    ],
    "bufferViews" : [
        {
            "buffer" : 0,
            "byteLength" : 14472,
            "byteOffset" : 0,
            "target" : 34962
        },
        {
            "buffer" : 0,
            "byteLength" : 9648,
            "byteOffset" : 14472,
            "target" : 34962
        },
        {
            "buffer" : 0,
            "byteLength" : 14472,
            "byteOffset" : 24120,
            "target" : 34962
        },
        {
            "buffer" : 0,
            "byteLength" : 3648,
            "byteOffset" : 38592,
            "target" : 34963
        }
    ],
    "buffers" : [
        {
            "byteLength" : 42240,
            "uri" : "data:application/octet-stream;base64,"
        }
    ]
}
