{
    "asset" : {
        "generator" : "Khronos glTF Blender I/O v3.4.50",
        "version" : "2.0"
    },
    "scene" : 0,
    "scenes" : [
        {
            "name" : "Scene",
            "nodes" : [
                0
            ]
        }
    ],
    "nodes" : [
        {
            "mesh" : 0,
            "name" : "Plane.001",
            "rotation" : [
                0.7071068286895752,
                0,
                0,
                0.7071068286895752
            ],
            "translation" : [
                -8.58742904663086,
                0,
                0
            ]
        }
    ],
    "materials" : [
        {
            "doubleSided" : true,
            "name" : "red",
            "pbrMetallicRoughness" : {
                "baseColorFactor" : [
                    0.8000000715255737,
                    0.00439276359975338,
                    0.019022716209292412,
                    1
                ],
                "metallicFactor" : 0.25,
                "roughnessFactor" : 0.22440946102142334
            }
        }
    ],
    "meshes" : [
        {
            "name" : "Plane.001",
            "primitives" : [
                {
                    "attributes" : {
                        "POSITION" : 0,
                        "TEXCOORD_0" : 1,
                        "NORMAL" : 2
                    },
                    "indices" : 3,
                    "material" : 0
                },
                {
                    "attributes" : {
                        "POSITION" : 4,
                        "TEXCOORD_0" : 5,
                        "NORMAL" : 6
                    },
                    "indices" : 7,
                    "material" : 0
                }
            ]
        }
    ],
    "accessors" : [
        {
            "bufferView" : 0,
            "componentType" : 5126,
            "count" : 1936,
            "max" : [
                0.9751471877098083,
                0.23169133067131042,
                0.9751471877098083
            ],
            "min" : [
                -0.9751471877098083,
                -0.10000000149011612,
                -0.9751471877098083
            ],
            "type" : "VEC3"
        },
        {
            "bufferView" : 1,
            "componentType" : 5126,
            "count" : 1936,
            "type" : "VEC2"
        },
        {
            "bufferView" : 2,
            "componentType" : 5126,
            "count" : 1936,
            "type" : "VEC3"
        },
        {
            "bufferView" : 3,
            "componentType" : 5123,
            "count" : 2910,
            "type" : "SCALAR"
        },
        {
            "bufferView" : 4,
            "componentType" : 5126,
            "count" : 1938,
            "max" : [
                0.9751471877098083,
                0.23169133067131042,
                0.9751471877098083
            ],
            "min" : [
                -0.9751471877098083,
                -0.10000000149011612,
                -0.9751471877098083
            ],
            "type" : "VEC3"
        },
        {
            "bufferView" : 5,
            "componentType" : 5126,
            "count" : 1938,
            "type" : "VEC2"
        },
        {
            "bufferView" : 6,
            "componentType" : 5126,
            "count" : 1938,
            "type" : "VEC3"
        },
        {
            "bufferView" : 7,
            "componentType" : 5123,
            "count" : 2910,
            "type" : "SCALAR"
        }
    ],
    "bufferViews" : [
        {
            "buffer" : 0,
            "byteLength" : 23232,
            "byteOffset" : 0,
            "target" : 34962
        },
        {
            "buffer" : 0,
            "byteLength" : 15488,
            "byteOffset" : 23232,
            "target" : 34962
        },
        {
            "buffer" : 0,
            "byteLength" : 23232,
            "byteOffset" : 38720,
            "target" : 34962
        },
        {
            "buffer" : 0,
            "byteLength" : 5820,
            "byteOffset" : 61952,
            "target" : 34963
        },
        {
            "buffer" : 0,
            "byteLength" : 23256,
            "byteOffset" : 67772,
            "target" : 34962
        },
        {
            "buffer" : 0,
            "byteLength" : 15504,
            "byteOffset" : 91028,
            "target" : 34962
        },
        {
            "buffer" : 0,
            "byteLength" : 23256,
            "byteOffset" : 106532,
            "target" : 34962
        },
        {
            "buffer" : 0,
            "byteLength" : 5820,
            "byteOffset" : 129788,
            "target" : 34963
        }
    ],
    "buffers" : [
        {
            "byteLength" : 135608,
            "uri" : "data:application/octet-stream;base64,"
        }
    ]
}
